<?xml version="1.0" encoding="iso-8859-1"?>
<svg version="1.1" id="Layer_1" xmlns="http://www.w3.org/2000/svg" xmlns:xlink="http://www.w3.org/1999/xlink" x="0px" y="0px"
	 viewBox="0 0 469.333 469.333" style="enable-background:new 0 0 469.333 469.333;" xml:space="preserve">
<g>
	<g>
		<g>
			<path fill="#ffffff" d="M458.667,181.333c5.896,0,10.667-4.771,10.667-10.667S464.563,160,458.667,160h-32v-42.667h32
				c5.896,0,10.667-4.771,10.667-10.667S464.563,96,458.667,96h-32V85.333c0-23.521-19.135-42.667-42.667-42.667h-10.667v-32
				C373.333,4.771,368.563,0,362.667,0C356.771,0,352,4.771,352,10.667v32h-42.667v-32C309.333,4.771,304.562,0,298.667,0
				S288,4.771,288,10.667v32h-42.667v-32C245.333,4.771,240.562,0,234.667,0S224,4.771,224,10.667v32h-42.667v-32
				C181.333,4.771,176.562,0,170.667,0S160,4.771,160,10.667v32h-42.667v-32C117.333,4.771,112.562,0,106.667,0S96,4.771,96,10.667
				v32H85.333c-23.531,0-42.667,19.146-42.667,42.667V96h-32C4.771,96,0,100.771,0,106.667s4.771,10.667,10.667,10.667h32V160h-32
				C4.771,160,0,164.771,0,170.667s4.771,10.667,10.667,10.667h32V224h-32C4.771,224,0,228.771,0,234.667
				s4.771,10.667,10.667,10.667h32V288h-32C4.771,288,0,292.771,0,298.667s4.771,10.667,10.667,10.667h32V352h-32
				C4.771,352,0,356.771,0,362.667c0,5.896,4.771,10.667,10.667,10.667h32V384c0,23.521,19.135,42.667,42.667,42.667H96v32
				c0,5.896,4.771,10.667,10.667,10.667s10.667-4.771,10.667-10.667v-32H160v32c0,5.896,4.771,10.667,10.667,10.667
				s10.667-4.771,10.667-10.667v-32H224v32c0,5.896,4.771,10.667,10.667,10.667s10.667-4.771,10.667-10.667v-32H288v32
				c0,5.896,4.771,10.667,10.667,10.667s10.667-4.771,10.667-10.667v-32H352v32c0,5.896,4.771,10.667,10.667,10.667
				c5.896,0,10.667-4.771,10.667-10.667v-32H384c23.531,0,42.667-19.146,42.667-42.667v-10.667h32
				c5.896,0,10.667-4.771,10.667-10.667c0-5.896-4.771-10.667-10.667-10.667h-32v-42.667h32c5.896,0,10.667-4.771,10.667-10.667
				S464.563,288,458.667,288h-32v-42.667h32c5.896,0,10.667-4.771,10.667-10.667S464.563,224,458.667,224h-32v-42.667H458.667z
				 M384,373.333c0,5.896-4.771,10.667-10.667,10.667H96c-5.896,0-10.667-4.771-10.667-10.667V96
				c0-5.896,4.771-10.667,10.667-10.667h277.333C379.229,85.333,384,90.104,384,96V373.333z"/>
			<path fill="#ffffff" d="M106.667,362.667h256v-256h-256V362.667z M246.76,250.729l42.646-74.688c2.927-5.104,9.406-6.854,14.552-3.979
				c5.115,2.938,6.896,9.438,3.969,14.563l-33.531,58.729l24.271-0.014v-10.673c0-5.896,4.771-10.667,10.667-10.667
				c5.896,0,10.667,4.771,10.667,10.667V288c0,5.896-4.771,10.667-10.667,10.667c-5.896,0-10.667-4.771-10.667-10.667v-21.329
				l-42.646,0.017c-3.802,0-7.312-2.021-9.219-5.313C244.885,258.083,244.875,254.042,246.76,250.729z M149.333,256v-21.333
				c0-35.292,28.708-64,64-64c5.896,0,10.667,4.771,10.667,10.667c0,5.896-4.771,10.667-10.667,10.667
				c-21.022,0-38.43,15.313-41.926,35.342c4.671-2.107,9.813-3.342,15.259-3.342C207.25,224,224,240.75,224,261.333
				c0,20.583-16.75,37.333-37.333,37.333s-37.333-16.75-37.333-37.333c0-1.216,0.245-2.365,0.359-3.551
				C149.587,257.181,149.333,256.633,149.333,256z"/>
			<circle fill="#ffffff" cx="186.667" cy="261.333" r="16"/>
		</g>
	</g>
</g>
<g>
</g>
<g>
</g>
<g>
</g>
<g>
</g>
<g>
</g>
<g>
</g>
<g>
</g>
<g>
</g>
<g>
</g>
<g>
</g>
<g>
</g>
<g>
</g>
<g>
</g>
<g>
</g>
<g>
</g>
</svg>
