<svg version="1.1" xmlns="http://www.w3.org/2000/svg" xmlns:xlink="http://www.w3.org/1999/xlink" x="0px" y="0px" viewBox="0 0 256 256" enable-background="new 0 0 256 256" xml:space="preserve">
<g><g><g><path fill="#ffffff" d="M68.8,10.9c-8.9,2.1-16.2,8.8-19.7,18c-1.2,3.3-1.3,3.5-1.5,44.4l-0.2,41.2h11h11V74.9V35.3l1.6-1.8l1.6-1.9l29-0.2l29-0.2v27c0,25.2,0.1,27.1,1.1,30.4c2.6,8.5,9.2,15.1,18,18c3.5,1.2,4.8,1.2,30.5,1.5l26.8,0.2v55.5c0,61.1,0.2,57.9-3.4,59.8c-1.5,0.7-9.2,0.8-66.3,0.7l-64.6-0.2l-1.6-1.9c-1.3-1.5-1.6-2.3-1.6-4.6V215h-11H47.4l0.4,4.4c1.1,12.8,9,22.5,21,25.6c4.9,1.3,133.7,1.2,138.6,0c10.1-2.6,17.6-10.1,20.2-20c0.7-2.6,0.8-14.4,0.8-75.2V77.7l-33.9-33.9L160.7,10l-44.4,0.1C80.5,10.1,71.4,10.2,68.8,10.9z M181.4,86.3c-19.2,0.1-25.5-0.1-26.5-0.6c-2.9-1.5-2.9-1.9-2.9-28.9V31.6l27.2,27.2l27.2,27.2L181.4,86.3z"/><path fill="#ffffff" d="M40.8,128.5c-4.9,1.5-9.8,5.8-12,10.6c-1.2,2.6-1.2,3.3-1.2,25.7v23l1.6,3.2c2,4,6.2,7.9,10.3,9.4c3,1.2,3.9,1.2,65.7,1.2c61.7,0,62.6,0,65.7-1.2c4.1-1.5,8.3-5.4,10.3-9.4l1.6-3.2v-23c0-22.4-0.1-23.1-1.2-25.7c-1.6-3.5-5.4-7.5-8.9-9.3l-2.8-1.5l-63.8-0.1C70.9,128.1,41.6,128.2,40.8,128.5z M125.2,151c3.4,1.7,4.8,3.5,5.7,7.4l0.3,1.6H128c-3.1,0-3.3-0.1-3.9-1.7c-1.3-3.5-8.1-4.4-10.7-1.4c-0.7,0.8-1.3,1.8-1.3,2.2c0,1.4,2.8,3,6.9,3.9c6.9,1.5,9.2,2.5,11.1,4.5c1.5,1.7,1.7,2.4,1.7,5.1c0,3.7-1,5.8-3.5,7.8c-4.1,3.1-12.8,3.4-17.5,0.7c-2.9-1.7-4.9-4.5-4.9-7c0-1.7,0-1.7,3-1.7c2.9,0,3,0.1,3.7,1.9c0.8,2.4,2.6,3.2,6.8,3.2c7,0,8.8-5.6,2.4-7.3c-1.1-0.3-4.2-1.1-6.9-1.8c-5.5-1.4-7.4-2.9-8.4-6.5c-1.5-5.5,2.1-10.6,8.4-12C117.8,149.2,122.7,149.8,125.2,151z M154.6,150.9c2.8,1.2,5.2,4.3,5.7,7l0.3,2h-3.1c-2.9,0-3.1-0.1-4-1.9c-2.1-4.5-11.6-3.8-11.6,0.8c0,2.2,1.3,2.9,7.9,4.5c8.7,2.1,11,3.8,11.6,8.3c0.4,3.1-0.7,5.9-3.2,8.2c-2.5,2.2-5.2,3.1-9.6,3.1c-6.3,0-11.2-2.6-12.8-6.9c-1.2-3.3-1-3.8,2.5-3.8c2.8,0,3.1,0.1,3.4,1.4c0.6,2.5,2.8,3.7,6.9,3.7c4.7,0,6.2-1,6.2-3.7c0-2.5-1.1-3.2-7.8-4.7c-8.5-1.9-10.8-3.7-11.2-8.7c-0.5-5.4,2.7-9.3,8.4-10.5C147.4,149.2,151.7,149.7,154.6,150.9z M57.7,163.3v12.9l7.8,0.2l7.7,0.2l0.2,2.9l0.2,3H62.2H50.9v-16v-16h3.4h3.4L57.7,163.3L57.7,163.3z M101.5,153.2v2.8H93h-8.4v3.4v3.4h7.6h7.6v2.8v2.8h-7.6h-7.6v3.9v3.9h8.7h8.7v3.1v3.1H89.9H77.9v-16v-16h11.8h11.8V153.2z"/></g></g></g>
</svg>